name processed_emg_signals
nRows=45
nColumns=7
 
endheader
time	RGLTMED	RRF	RADDLONG	RBF	RTA	RGM
15.78	0.002606719665882	0.0116905902031458	0.0002108212839831	0.0203228973325841	0.1185943565409074	0.0014278933367441
15.79	0.0022087156815114	0.0110201191042943	0.0004208653582887	0.0191841864739248	0.1052856921208092	0.0003362174573601
15.799999999999999	0.0018121800558077	0.0103483426438136	0.0006313121471284	0.0179908200111166	0.09196523651837	0.0007597282813629
15.809999999999999	0.0014173412715329	0.0096755277114212	0.0008420521384841	0.016742147354441	0.078639947922001	0.0018592790365571
15.819999999999999	0.0010244247373601	0.0090019385080942	0.0010529761559098	0.0154375570130829	0.0653167980338126	0.0029617599665564
15.829999999999998	0.0006336524340548	0.0083278362026132	0.0012639755300493	0.0140764782084473	0.0520027650247476	0.004066486821307
15.839999999999998	0.000245242569867	0.0076534786048474	0.0014749422678474	0.0126583824752578	0.038704826590256	0.0051727665432614
15.849999999999998	0.0001405907536534	0.0069791198571454	0.0016857692188829	0.0111827852478469	0.0254299531205982	0.0062798978779023
15.859999999999998	0.0005236378642468	0.0063050101449877	0.001896350238327	0.0096492474289256	0.0121851009986776	0.0073871719930772
15.869999999999997	0.0009036938288186	0.0056313954278462	0.0021065803460779	0.0080573769379946	0.0010227939628109	0.0084938731063624
15.879999999999997	0.0012805587495429	0.0049585171910282	0.0023163558816552	0.0064068302364438	0.0141868229343476	0.009599279119715
15.889999999999997	0.0016540380452216	0.0042866122191507	0.00252557465446	0.0046973138262765	0.0273001103233991	0.0107026622607328
15.899999999999997	0.0020239427170199	0.003615912391784	0.0027341360890312	0.0029285857192947	0.0403558198611459	0.0118032897298873
15.909999999999997	0.002390089597794	0.0029466445016824	0.0029419413649525	0.0011004568734942	0.0533471605154985	0.0129004243531282
15.919999999999996	0.0027523015843274	0.0022790300958542	0.003148893551106	0.0007872074066558	0.0662673922250431	0.0139933252392767
15.929999999999996	0.0031104078519096	0.0016132853395356	0.0033548977340145	0.0027344861094352	0.0791098314497189	0.0150812484416574
15.939999999999996	0.0034642440508105	0.0009496209029466	0.0035598611400503	0.0047414011980291	0.0918678565350352	0.0161634476234676
15.949999999999996	0.0038136524843281	0.0002882418705347	0.0037636932513257	0.006807916339103	0.1045349128875741	0.0172391747264598
15.959999999999996	0.0041584822681951	0.0003706523277617	0.0039663059151149	0.0089339356813193	0.1171045179605025	0.0183076806426127
15.969999999999995	0.0044985894712397	0.0010268679638318	0.0041676134466946	0.0111193026873584	0.1295702660488489	0.0193682158885717
15.979999999999995	0.0048338372372833	0.0016802170380165	0.0043675327255378	0.0133637990230465	0.141925832895219	0.0204200312827265
15.989999999999995	0.0051640958883347	0.0023305172858442	0.0045659832848278	0.0156671435072048	0.154164980107392	0.0214623786248779
15.999999999999995	0.0054892430092134	0.0029775921657384	0.0047628873942929	0.0180289911258346	0.1662815593899696	0.0224945113785172
16.009999999999994	0.0058091635137994	0.0036212708286091	0.0049581701363823	0.0204489321142388	0.1782695165930758	0.0235156853558313
16.019999999999992	0.006123749693201	0.0042613880702701	0.0051517594758235	0.0229264911106508	0.1901228955819306	0.0245251594056146
16.029999999999994	0.0064329012462002	0.0048977842676588	0.005343586322623	0.0254611263849095	0.2018358419317411	0.02552219610433
16.039999999999992	0.0067365252923988	0.0055303052998686	0.0055335845885802	0.0280522291456727	0.2134026064527541	0.0265060624505862
16.049999999999994	0.0070345363685411	0.0061588024550236	0.0057216912373844	0.0306991229295984	0.2248175485506558	0.0274760305632986
16.05999999999999	0.0073268564085355	0.006783132324045	0.005907846328358	0.0334010630758553	0.2360751394279029	0.0284313783837744
16.069999999999993	0.0076134147077589	0.0074031566823516	0.0060919930539064	0.0361572362892368	0.2471699651320411	0.0293713903819508
16.07999999999999	0.0078941478722534	0.0080187423605241	0.0062740777707259	0.0389667602950813	0.2580967294576035	0.0302953582669965
16.089999999999993	0.0081689997534495	0.0086297611049482	0.0064540500248205	0.0418286835891155	0.2688502567087715	0.0312025817024812
16.09999999999999	0.0084379213690429	0.0092360894294298	0.006631862570372	0.0447419852852583	0.2794254943305937	0.0320923690262845
16.109999999999992	0.0087008708106512	0.0098376084587588	0.0068074713825032	0.0477055750643422	0.2898175154170169	0.0329640379753541
16.11999999999999	0.0089578131388744	0.0104342037651758	0.0069808356639745	0.050718293226603	0.3000215211041736	0.0338169164153297
16.129999999999992	0.0092087202663999	0.011025765198693	0.0071519178458618	0.0537789108506898	0.310032842857313	0.0346503430749413
16.13999999999999	0.009453570829823	0.0116121867122131	0.0073206835822988	0.0568861300618062	0.3198469446595683	0.0354636682849871
16.14999999999999	0.009692350050884	0.0121933661823769	0.0074871017393982	0.0600385844114661	0.3294594251105321	0.0362562547215877
16.15999999999999	0.0099250495878513	0.0127692052270666	0.0076511443785045	0.063234839371159	0.3388660194423901	0.0370274781533275
16.16999999999999	0.0101516673777835	0.0133396090204664	0.0078127867339598	0.0664733929420296	0.3480626014611142	0.0377767281917947
16.17999999999999	0.0103722074703967	0.0139044861065816	0.0079720071855717	0.0697526763824448	0.3570451854198219	0.0385034090449431
16.18999999999999	0.0105866798542545	0.0144637482120997	0.0081287872259796	0.0730710550550884	0.3658099278308523	0.0392069402726232
16.19999999999999	0.0107951002759843	0.0150173100594701	0.008283111423113	0.0764268293949683	0.3743531292224679	0.0398867575435494
16.20999999999999	0.0109974900532283	0.015565089181057	0.0084349673779357	0.0798182359994637	0.3826712358455105	0.0405423133928963
16.219999999999988	0.0111938758820173	0.0161070057351899	0.0085843456776859	0.0832434488412535	0.390760841334837	0.0411730779796246
